<svg width="24" height="20" viewBox="0 0 24 20" fill="none" xmlns="http://www.w3.org/2000/svg">
<path d="M11 0H10.7902C10.327 0 9.92441 0.318144 9.81732 0.768831L7.74036 9.51007C7.52619 10.4114 6.721 11.0477 5.79453 11.0477H0" transform="translate(12 7.5)" stroke="#59BCCC" stroke-width="2" stroke-linecap="round" stroke-linejoin="round"/>
<path d="M11 0H10.7903C10.327 0 9.92441 0.318154 9.81733 0.76885L7.74033 9.51101C7.52618 10.4124 6.72098 11.0487 5.7945 11.0487H0" transform="translate(12 7.5) scale(-1 1)" stroke="#59BCCC" stroke-width="2" stroke-linecap="round" stroke-linejoin="round"/>
<path d="M7 0H6.6746C6.26691 0 5.90004 0.247492 5.74737 0.625514L4.63815 3.37196C3.87478 5.26207 2.03844 6.49953 0 6.49953V6.49953" transform="translate(12 7.5) scale(1 -1)" stroke="#59BCCC" stroke-width="2" stroke-linecap="round" stroke-linejoin="round"/>
<path d="M7 0H6.67462C6.26692 0 5.90005 0.247503 5.74738 0.625537L4.6381 3.37232C3.87477 5.26249 2.03849 6.5 0 6.5V6.5" transform="translate(12 7.5) rotate(-180)" stroke="#59BCCC" stroke-width="2" stroke-linecap="round" stroke-linejoin="round"/>
<path d="M0 0H22" transform="translate(1 7.5)" stroke="#59BCCC" stroke-width="2"/>
<path d="M0 0H8" transform="translate(8 12)" stroke="#59BCCC" stroke-linecap="round"/>
<path d="M0 0H6.4" transform="translate(8.80078 15)" stroke="#59BCCC" stroke-linecap="round"/>
</svg>
