<svg width="670" height="52" viewBox="0 0 670 52" fill="none" xmlns="http://www.w3.org/2000/svg">
<path d="M4.24805 50.625H0V40.166H3.51562L20.4199 1.08398H21.9141L39.7559 40.166H43.125V50.625H38.877V44.1797H4.24805V50.625ZM8.37891 40.166H34.6582L21.1816 9.99023L8.37891 40.166Z" transform="translate(0.576172 0.820312)" fill="#FCFCFC"/>
<path d="M62.4774 1.08398H87.1746V5.33203H66.784V18.8086H86.9988V23.0273H66.784V39.9316H86.9988V44.1797H62.4774V1.08398Z" transform="translate(0.576172 0.820312)" fill="#FCFCFC"/>
<path d="M142.709 44.1797H138.021L123.754 10.8691L109.222 44.1797H104.535L123.285 1.08398H124.222L142.709 44.1797Z" transform="translate(0.576172 0.820312)" fill="#FCFCFC"/>
<path d="M183.682 0C190.205 0 195.664 2.17773 200.059 6.5332C204.454 10.8887 206.651 16.25 206.651 22.6172C206.651 28.9258 204.454 34.2773 200.059 38.6719C195.684 43.0664 190.342 45.2637 184.034 45.2637C177.647 45.2637 172.256 43.0762 167.862 38.7012C163.467 34.3262 161.27 29.0332 161.27 22.8223C161.27 18.6816 162.266 14.8438 164.258 11.3086C166.27 7.77344 169.004 5.00977 172.461 3.01758C175.918 1.00586 179.659 0 183.682 0ZM183.887 4.21875C180.704 4.21875 177.686 5.04883 174.834 6.70898C171.983 8.36914 169.756 10.6055 168.155 13.418C166.553 16.2305 165.752 19.3652 165.752 22.8223C165.752 27.9395 167.52 32.2656 171.055 35.8008C174.61 39.3164 178.887 41.0742 183.887 41.0742C187.227 41.0742 190.313 40.2637 193.145 38.6426C195.996 37.0215 198.213 34.8047 199.795 31.9922C201.397 29.1797 202.198 26.0547 202.198 22.6172C202.198 19.1992 201.397 16.1133 199.795 13.3594C198.213 10.5859 195.977 8.36914 193.086 6.70898C190.196 5.04883 187.129 4.21875 183.887 4.21875Z" transform="translate(0.576172 0.820312)" fill="#FCFCFC"/>
<path d="M258.451 1.08398H266.947C270.365 1.08398 272.992 1.49414 274.828 2.31445C276.664 3.11523 278.109 4.35547 279.164 6.03516C280.238 7.71484 280.775 9.58008 280.775 11.6309C280.775 13.5449 280.307 15.293 279.369 16.875C278.432 18.4375 277.055 19.707 275.238 20.6836C277.484 21.4453 279.213 22.3438 280.424 23.3789C281.635 24.3945 282.572 25.6348 283.236 27.0996C283.92 28.5449 284.262 30.1172 284.262 31.8164C284.262 35.2734 282.992 38.2031 280.453 40.6055C277.934 42.9883 274.545 44.1797 270.287 44.1797H258.451V1.08398ZM262.67 5.30273V19.1016H265.131C268.119 19.1016 270.316 18.8281 271.723 18.2812C273.129 17.7148 274.242 16.8359 275.062 15.6445C275.883 14.4336 276.293 13.0957 276.293 11.6309C276.293 9.6582 275.6 8.11523 274.213 7.00195C272.846 5.86914 270.658 5.30273 267.65 5.30273H262.67ZM262.67 23.4375V39.9609H268.002C271.146 39.9609 273.451 39.6582 274.916 39.0527C276.381 38.4277 277.553 37.4609 278.432 36.1523C279.33 34.8438 279.779 33.4277 279.779 31.9043C279.779 29.9902 279.154 28.3203 277.904 26.8945C276.654 25.4688 274.936 24.4922 272.748 23.9648C271.283 23.6133 268.734 23.4375 265.102 23.4375H262.67Z" transform="translate(0.576172 0.820312)" fill="#FCFCFC"/>
<path d="M335.711 50.625H331.462V40.166H334.978L351.882 1.08398H353.377L371.218 40.166H374.587V50.625H370.339V44.1797H335.711V50.625ZM339.841 40.166H366.121L352.644 9.99023L339.841 40.166Z" transform="translate(0.576172 0.820312)" fill="#FCFCFC"/>
<path d="M393.94 1.08398H418.637V5.33203H398.246V18.8086H418.461V23.0273H398.246V39.9316H418.461V44.1797H393.94V1.08398Z" transform="translate(0.576172 0.820312)" fill="#FCFCFC"/>
<path d="M435.001 5.27344V1.08398H458.644V5.27344H449.034V44.1797H444.64V5.27344H435.001Z" transform="translate(0.576172 0.820312)" fill="#FCFCFC"/>
<path d="M495.633 1.08398L515.73 44.1797H511.102L504.334 30H485.76L479.021 44.1797H474.217L494.578 1.08398H495.633ZM495.105 10.2246L487.693 25.8398H502.43L495.105 10.2246Z" transform="translate(0.576172 0.820312)" fill="#FCFCFC"/>
<path d="M570.532 44.1797H565.845L551.577 10.8691L537.046 44.1797H532.358L551.108 1.08398H552.046L570.532 44.1797Z" transform="translate(0.576172 0.820312)" fill="#FCFCFC"/>
<path d="M615.402 1.08398H606.818C602.033 1.08398 598.791 1.2793 597.091 1.66992C594.533 2.25586 592.453 3.51562 590.851 5.44922C589.25 7.36328 588.449 9.72656 588.449 12.5391C588.449 14.8828 588.996 16.9434 590.089 18.7207C591.203 20.498 592.785 21.8457 594.836 22.7637C596.886 23.6621 599.718 24.1211 603.332 24.1406L587.834 44.1797H593.166L608.634 24.1406H611.095V44.1797H615.402V1.08398ZM611.095 5.30273V19.9512L603.683 20.0098C600.812 20.0098 598.683 19.7363 597.297 19.1895C595.929 18.6426 594.855 17.7734 594.074 16.582C593.312 15.3711 592.931 14.0234 592.931 12.5391C592.931 11.0938 593.322 9.78516 594.103 8.61328C594.884 7.42188 595.91 6.57227 597.179 6.06445C598.449 5.55664 600.558 5.30273 603.507 5.30273H611.095Z" transform="translate(0.576172 0.820312)" fill="#FCFCFC"/>
<path d="M636.922 1.08398H641.961L652.274 17.9004L662.674 1.08398H667.655L654.823 21.9727L668.504 44.1797H663.465L652.274 26.1035L641.024 44.1797H635.985L649.725 21.9727L636.922 1.08398Z" transform="translate(0.576172 0.820312)" fill="#FCFCFC"/>
</svg>
