<svg width="146" height="58" viewBox="0 0 146 58" fill="none" xmlns="http://www.w3.org/2000/svg">
<path d="M29.7484 4.74609C31.7054 4.74609 33.3431 5.39941 34.6614 6.70605C35.9798 8.0127 36.639 9.62109 36.639 11.5312C36.639 13.4238 35.9798 15.0293 34.6614 16.3477C33.3489 17.666 31.7464 18.3252 29.8538 18.3252C27.9378 18.3252 26.3206 17.6689 25.0023 16.3564C23.6839 15.0439 23.0247 13.4561 23.0247 11.5928C23.0247 10.3506 23.3236 9.19922 23.9212 8.13867C24.5247 7.07812 25.345 6.24902 26.3821 5.65137C27.4193 5.04785 28.5413 4.74609 29.7484 4.74609ZM29.8099 6.01172C28.8548 6.01172 27.9495 6.26074 27.0941 6.75879C26.2386 7.25684 25.5706 7.92773 25.0902 8.77148C24.6097 9.61523 24.3695 10.5557 24.3695 11.5928C24.3695 13.1279 24.8997 14.4258 25.9603 15.4863C27.0267 16.541 28.3099 17.0684 29.8099 17.0684C30.8118 17.0684 31.7376 16.8252 32.5872 16.3389C33.4427 15.8525 34.1077 15.1875 34.5823 14.3438C35.0628 13.5 35.303 12.5625 35.303 11.5312C35.303 10.5059 35.0628 9.58008 34.5823 8.75391C34.1077 7.92187 33.4368 7.25684 32.5696 6.75879C31.7025 6.26074 30.7825 6.01172 29.8099 6.01172ZM43.183 5.07129H45.7582C47.2347 5.07129 48.2308 5.13574 48.7464 5.26465C49.4847 5.44629 50.0882 5.82129 50.557 6.38965C51.0257 6.95215 51.2601 7.66113 51.2601 8.5166C51.2601 9.37793 51.0316 10.0898 50.5746 10.6523C50.1175 11.209 49.4877 11.584 48.6849 11.7773C48.099 11.918 47.0033 11.9883 45.3978 11.9883H44.475V18H43.183V5.07129ZM44.475 6.32812V10.7227L46.6634 10.749C47.5482 10.749 48.1957 10.6699 48.6058 10.5117C49.016 10.3477 49.3382 10.0869 49.5726 9.72949C49.807 9.36621 49.9242 8.96191 49.9242 8.5166C49.9242 8.08301 49.807 7.6875 49.5726 7.33008C49.3382 6.9668 49.0277 6.70898 48.641 6.55664C48.2601 6.4043 47.6332 6.32812 46.7601 6.32812H44.475ZM56.5209 6.32812V5.07129H63.6137V6.32812H60.7309V18H59.4125V6.32812H56.5209ZM75.5893 4.74609C77.5463 4.74609 79.184 5.39941 80.5024 6.70605C81.8207 8.0127 82.4799 9.62109 82.4799 11.5312C82.4799 13.4238 81.8207 15.0293 80.5024 16.3477C79.1899 17.666 77.5873 18.3252 75.6948 18.3252C73.7787 18.3252 72.1616 17.6689 70.8432 16.3564C69.5248 15.0439 68.8657 13.4561 68.8657 11.5928C68.8657 10.3506 69.1645 9.19922 69.7621 8.13867C70.3657 7.07812 71.186 6.24902 72.2231 5.65137C73.2602 5.04785 74.3823 4.74609 75.5893 4.74609ZM75.6508 6.01172C74.6957 6.01172 73.7905 6.26074 72.935 6.75879C72.0795 7.25684 71.4116 7.92773 70.9311 8.77148C70.4506 9.61523 70.2104 10.5557 70.2104 11.5928C70.2104 13.1279 70.7407 14.4258 71.8012 15.4863C72.8676 16.541 74.1508 17.0684 75.6508 17.0684C76.6528 17.0684 77.5786 16.8252 78.4282 16.3389C79.2836 15.8525 79.9487 15.1875 80.4233 14.3438C80.9037 13.5 81.144 12.5625 81.144 11.5312C81.144 10.5059 80.9037 9.58008 80.4233 8.75391C79.9487 7.92187 79.2778 7.25684 78.4106 6.75879C77.5434 6.26074 76.6235 6.01172 75.6508 6.01172ZM89.0239 18V5.07129H95.5014V6.3457H90.2983V10.4766H90.9048C92.5161 10.4766 93.685 10.6201 94.4116 10.9072C95.144 11.1885 95.7182 11.6367 96.1343 12.252C96.5561 12.8613 96.7671 13.541 96.7671 14.291C96.7671 15.2754 96.3979 16.1396 95.6596 16.8838C94.9214 17.6279 93.893 18 92.5747 18H89.0239ZM90.2983 11.7773V16.7344H91.8891C92.8325 16.7344 93.5239 16.6436 93.9634 16.4619C94.4028 16.2744 94.7514 15.9902 95.0093 15.6094C95.2729 15.2227 95.4048 14.792 95.4048 14.3174C95.4048 13.7197 95.2202 13.2129 94.8511 12.7969C94.4819 12.3809 94.0219 12.1084 93.4712 11.9795C92.9204 11.8447 92.103 11.7773 91.019 11.7773H90.2983ZM113.779 18H112.373L108.092 8.00684L103.733 18H102.327L107.952 5.07129H108.233L113.779 18ZM125.192 5.07129L131.221 18H129.833L127.802 13.7461H122.23L120.209 18H118.767L124.876 5.07129H125.192ZM125.034 7.81348L122.81 12.498H127.231L125.034 7.81348ZM137.176 5.07129H138.477V10.4941H145.051V5.07129H146.352V18H145.051V11.7598H138.477V18H137.176V5.07129ZM154.742 16.7783H160.261V5.07129H161.562V16.7783H167.17V5.07129H168.47V18H153.441V5.07129H154.742V16.7783Z" transform="translate(-23 39)" fill="#89A9BB"/>
<rect width="24" height="11" transform="translate(62 7)" fill="white"/>
<path d="M31.0088 0.113591C29.8919 -0.186245 28.9876 0.213546 28.5089 0.513382C26.1155 2.21246 23.1369 3.11196 19.9456 3.11196C16.7543 3.11196 13.7226 2.16248 11.3823 0.513382C10.9036 0.163573 9.94621 -0.186245 8.88244 0.113591C6.22302 0.713264 0.42552 3.76161 1.29854e-05 6.06036C0.0532013 6.11033 0.0531753 6.1603 0.106364 6.21027C0.265929 5.26079 1.06376 4.91098 1.8084 4.91098C2.2339 4.91098 2.60622 5.06089 3.03172 5.4107C3.08491 5.46068 7.2868 8.70891 9.78665 9.80831C9.78665 9.75834 9.78665 9.70836 9.78665 9.65839C12.8716 11.0076 16.2756 11.7572 19.8924 11.7572C23.5092 11.7572 26.9665 11.0076 29.9982 9.65839C29.9982 9.70836 29.9982 9.75834 29.9982 9.80831C32.4981 8.70891 36.7 5.4107 36.7531 5.4107C37.1786 5.06089 37.551 4.91098 37.9765 4.91098C38.7211 4.91098 39.5189 5.26079 39.6785 6.21027C39.7317 6.1603 39.7849 6.11033 39.7849 6.06036C39.4126 3.81159 33.6682 0.763237 31.0088 0.113591Z" transform="translate(54.1074)" fill="#A1DBE4"/>
<path d="M38.1361 3.05009e-06C37.6042 3.05009e-06 37.1787 0.199894 36.8063 0.49973C36.8063 0.49973 32.6044 3.74795 30.1046 4.84735C28.6685 8.69525 24.6794 11.4937 19.9988 11.4937C15.3182 11.4937 11.3291 8.69525 9.89302 4.84735C7.39317 3.74795 3.19131 0.49973 3.19131 0.49973C2.7658 0.149921 2.39348 3.05009e-06 1.8616 3.05009e-06C0.797831 3.05009e-06 6.49272e-06 0.599676 6.49272e-06 1.74905C6.49272e-06 11.9435 8.98882 20.239 19.9988 20.239C31.062 20.239 39.9976 11.9435 39.9976 1.74905C40.0508 0.599676 39.1998 3.05009e-06 38.1361 3.05009e-06Z" transform="translate(54 4.76172)" fill="#3EC2CF"/>
<path d="M39.8612 3.91884C39.9513 3.20701 39.9976 2.48294 39.9976 1.74905C40.0508 0.599679 39.1998 0 38.136 0C37.6042 0 37.1786 0.199895 36.8063 0.499727C36.8063 0.499727 32.6044 3.74795 30.1046 4.84735C29.7301 5.85074 29.182 6.78278 28.4934 7.61245C29.9672 6.86655 31.1516 5.9928 32.245 5.1862C34.124 3.80007 35.7342 2.61221 38.0828 2.61221C38.8275 2.61221 39.6785 2.99835 39.838 3.94783C39.8473 3.93913 39.8549 3.92934 39.8612 3.91884Z" transform="translate(54 4.76172)" fill="#20A5B2"/>
<path d="M11.4002 7.485C10.7602 6.68774 10.2484 5.79968 9.89302 4.84735C7.39317 3.74795 3.1913 0.499727 3.1913 0.499727C2.76579 0.14992 2.39348 0 1.86159 0C0.797825 0 0 0.599679 0 1.74905C0 2.46658 0.0445319 3.1747 0.131161 3.87119L0.212726 3.94783C0.372284 2.99835 1.17012 2.61221 1.91476 2.61221C4.28646 2.61221 5.96102 3.82115 7.90277 5.22299C8.9426 5.97368 10.0591 6.77969 11.4002 7.485Z" transform="translate(54 4.76172)" fill="#20A5B2"/>
</svg>
