<svg width="40" height="25" viewBox="0 0 40 25" fill="none" xmlns="http://www.w3.org/2000/svg">
<path d="M31.0088 0.113591C29.8919 -0.186245 28.9876 0.213546 28.5089 0.513382C26.1155 2.21246 23.1369 3.11196 19.9456 3.11196C16.7543 3.11196 13.7226 2.16248 11.3823 0.513382C10.9036 0.163573 9.94621 -0.186245 8.88244 0.113591C6.22302 0.713264 0.42552 3.76161 1.29854e-05 6.06036C0.0532013 6.11033 0.0531753 6.1603 0.106364 6.21027C0.265929 5.26079 1.06376 4.91098 1.8084 4.91098C2.2339 4.91098 2.60622 5.06089 3.03172 5.4107C3.08491 5.46068 7.2868 8.70891 9.78665 9.80831C9.78665 9.75834 9.78665 9.70836 9.78665 9.65839C12.8716 11.0076 16.2756 11.7572 19.8924 11.7572C23.5092 11.7572 26.9665 11.0076 29.9982 9.65839C29.9982 9.70836 29.9982 9.75834 29.9982 9.80831C32.4981 8.70891 36.7 5.4107 36.7531 5.4107C37.1786 5.06089 37.551 4.91098 37.9765 4.91098C38.7211 4.91098 39.5189 5.26079 39.6785 6.21027C39.7317 6.1603 39.7849 6.11033 39.7849 6.06036C39.4126 3.81159 33.6682 0.763237 31.0088 0.113591Z" transform="translate(0.106445)" fill="#A1DBE4"/>
<path d="M38.1361 3.05009e-06C37.6042 3.05009e-06 37.1787 0.199894 36.8063 0.49973C36.8063 0.49973 32.6044 3.74795 30.1046 4.84735C28.6685 8.69525 24.6794 11.4937 19.9988 11.4937C15.3182 11.4937 11.3291 8.69525 9.89302 4.84735C7.39317 3.74795 3.19131 0.49973 3.19131 0.49973C2.7658 0.149921 2.39348 3.05009e-06 1.8616 3.05009e-06C0.797831 3.05009e-06 6.49272e-06 0.599676 6.49272e-06 1.74905C6.49272e-06 11.9435 8.98882 20.239 19.9988 20.239C31.062 20.239 39.9976 11.9435 39.9976 1.74905C40.0508 0.599676 39.1998 3.05009e-06 38.1361 3.05009e-06Z" transform="translate(0 4.76172)" fill="#3EC2CF"/>
<path d="M39.8612 3.91884C39.9513 3.20701 39.9976 2.48294 39.9976 1.74905C40.0508 0.599679 39.1998 0 38.136 0C37.6042 0 37.1786 0.199895 36.8063 0.499727C36.8063 0.499727 32.6044 3.74795 30.1046 4.84735C29.7301 5.85074 29.182 6.78278 28.4934 7.61245C29.9672 6.86655 31.1516 5.9928 32.245 5.1862C34.124 3.80007 35.7342 2.61221 38.0828 2.61221C38.8275 2.61221 39.6785 2.99835 39.838 3.94783C39.8473 3.93913 39.8549 3.92934 39.8612 3.91884Z" transform="translate(0 4.76172)" fill="#20A5B2"/>
<path d="M11.4002 7.485C10.7602 6.68774 10.2484 5.79968 9.89302 4.84735C7.39317 3.74795 3.1913 0.499727 3.1913 0.499727C2.76579 0.14992 2.39348 0 1.86159 0C0.797825 0 0 0.599679 0 1.74905C0 2.46658 0.0445319 3.1747 0.131161 3.87119L0.212726 3.94783C0.372284 2.99835 1.17012 2.61221 1.91476 2.61221C4.28646 2.61221 5.96102 3.82115 7.90277 5.22299C8.9426 5.97368 10.0591 6.77969 11.4002 7.485Z" transform="translate(0 4.76172)" fill="#20A5B2"/>
</svg>
