<svg width="22" height="9" viewBox="0 0 22 9" fill="none" xmlns="http://www.w3.org/2000/svg">
<path d="M9.63125 16.3809H11.3715C12.3129 16.3809 12.9906 16.4688 13.4047 16.6445C13.8227 16.8164 14.1508 17.0977 14.3891 17.4883C14.6313 17.875 14.7523 18.3398 14.7523 18.8828C14.7523 19.4844 14.5941 19.9844 14.2777 20.3828C13.9652 20.7812 13.5395 21.0586 13.0004 21.2148C12.684 21.3047 12.1078 21.3496 11.2719 21.3496V25H9.63125V16.3809ZM11.2719 19.75H11.7934C12.2035 19.75 12.4887 19.7207 12.6488 19.6621C12.809 19.6035 12.934 19.5078 13.0238 19.375C13.1176 19.2383 13.1645 19.0742 13.1645 18.8828C13.1645 18.5508 13.0355 18.3086 12.7777 18.1562C12.5902 18.043 12.2426 17.9863 11.7348 17.9863H11.2719V19.75ZM16.9695 16.3809H18.9148C20.1688 16.3809 21.1004 16.5371 21.7098 16.8496C22.3191 17.1582 22.8211 17.6621 23.2156 18.3613C23.6102 19.0605 23.8074 19.877 23.8074 20.8105C23.8074 21.4746 23.6961 22.0859 23.4734 22.6445C23.2547 23.1992 22.95 23.6602 22.5594 24.0273C22.1727 24.3945 21.7527 24.6484 21.2996 24.7891C20.8465 24.9297 20.0613 25 18.9441 25H16.9695V16.3809ZM18.6043 17.9629V23.3945H19.366C20.116 23.3945 20.659 23.3086 20.9949 23.1367C21.3348 22.9648 21.6121 22.6758 21.827 22.2695C22.0418 21.8633 22.1492 21.3633 22.1492 20.7695C22.1492 19.8555 21.8934 19.1465 21.3816 18.6426C20.9207 18.1895 20.1805 17.9629 19.1609 17.9629H18.6043ZM25.9895 16.3809H30.2668V17.9805H27.6125V19.5449H30.2668V21.1211H27.6125V25H25.9895V16.3809Z" transform="translate(-9 -16)" fill="#FCFCFC"/>
</svg>
