<svg width="36" height="36" viewBox="0 0 36 36" fill="none" xmlns="http://www.w3.org/2000/svg">
<g filter="url(#filter0_d)">
<circle cx="13" cy="13" r="13" transform="translate(5 3)" fill="white"/>
</g>
<rect width="8.4" height="3.95989" transform="translate(13.8008 14.5195)" fill="white"/>
<path d="M10.8531 0.0408918C10.4621 -0.0670464 10.1457 0.0768745 9.97813 0.184813C9.14042 0.796462 8.09793 1.12027 6.98097 1.12027C5.86402 1.12027 4.8029 0.778473 3.9838 0.184813C3.81626 0.0588848 3.48117 -0.0670464 3.10885 0.0408918C2.17806 0.256768 0.148932 1.35414 4.5449e-06 2.18167C0.0186205 2.19966 0.0186114 2.21765 0.0372273 2.23564C0.093075 1.89383 0.372316 1.7679 0.632939 1.7679C0.781866 1.7679 0.912175 1.82187 1.0611 1.9478C1.07972 1.96579 2.55038 3.13512 3.42533 3.5309C3.42533 3.51291 3.42533 3.49491 3.42533 3.47692C4.50505 3.96265 5.69647 4.23249 6.96235 4.23249C8.22823 4.23249 9.43827 3.96265 10.4994 3.47692C10.4994 3.49491 10.4994 3.51291 10.4994 3.5309C11.3743 3.13512 12.845 1.9478 12.8636 1.9478C13.0125 1.82187 13.1428 1.7679 13.2918 1.7679C13.5524 1.7679 13.8316 1.89383 13.8875 2.23564C13.9061 2.21765 13.9247 2.19966 13.9247 2.18167C13.7944 1.37213 11.7839 0.274758 10.8531 0.0408918Z" transform="translate(11.0371 12)" fill="#A1DBE4"/>
<path d="M13.3476 1.098e-06C13.1615 1.098e-06 13.0125 0.0719599 12.8822 0.179898C12.8822 0.179898 11.4116 1.34923 10.5366 1.745C10.034 3.13021 8.63778 4.13763 6.99958 4.13763C5.36138 4.13763 3.96519 3.13021 3.46256 1.745C2.58761 1.34923 1.11696 0.179898 1.11696 0.179898C0.96803 0.0539702 0.837719 1.098e-06 0.651559 1.098e-06C0.279241 1.098e-06 2.27245e-06 0.215878 2.27245e-06 0.629641C2.27245e-06 4.29954 3.14609 7.28583 6.99958 7.28583C10.8717 7.28583 13.9992 4.29954 13.9992 0.629641C14.0178 0.215878 13.7199 1.098e-06 13.3476 1.098e-06Z" transform="translate(11 13.7144)" fill="#3EC2CF"/>
<path d="M13.9514 1.41074C13.983 1.15449 13.9992 0.893836 13.9992 0.629639C14.0178 0.215879 13.7199 0 13.3476 0C13.1615 0 13.0125 0.0719604 12.8822 0.179897C12.8822 0.179897 11.4116 1.34922 10.5366 1.745C10.4055 2.10621 10.2137 2.44174 9.97267 2.74041C10.4885 2.47189 10.9031 2.15735 11.2858 1.86698C11.9434 1.36799 12.507 0.940372 13.329 0.940372C13.5896 0.940372 13.8875 1.07938 13.9433 1.42118C13.9466 1.41805 13.9492 1.41453 13.9514 1.41074Z" transform="translate(11 13.7144)" fill="#20A5B2"/>
<path d="M3.99008 2.69453C3.76609 2.40752 3.58695 2.08783 3.46256 1.745C2.58761 1.34922 1.11696 0.179897 1.11696 0.179897C0.968027 0.0539696 0.837716 0 0.651557 0C0.279239 0 0 0.215879 0 0.629639C0 0.887945 0.0155862 1.14286 0.0459063 1.39359L0.074454 1.42118C0.130299 1.07938 0.409541 0.940372 0.670166 0.940372C1.50026 0.940372 2.08636 1.37558 2.76597 1.88022C3.12991 2.15047 3.52067 2.44062 3.99008 2.69453Z" transform="translate(11 13.7144)" fill="#20A5B2"/>
<defs>
<filter id="filter0_d" x="0" y="0" width="36" height="36" filterUnits="userSpaceOnUse" color-interpolation-filters="sRGB">
<feFlood flood-opacity="0" result="BackgroundImageFix"/>
<feColorMatrix in="SourceAlpha" type="matrix" values="0 0 0 0 0 0 0 0 0 0 0 0 0 0 0 0 0 0 255 0"/>
<feOffset dy="2"/>
<feGaussianBlur stdDeviation="2.5"/>
<feColorMatrix type="matrix" values="0 0 0 0 0.696345 0 0 0 0 0.761712 0 0 0 0 0.76815 0 0 0 1 0"/>
<feBlend mode="multiply" in2="BackgroundImageFix" result="effect1_dropShadow"/>
<feBlend mode="normal" in="SourceGraphic" in2="effect1_dropShadow" result="shape"/>
</filter>
</defs>
</svg>
