<svg width="6" height="16" viewBox="0 0 6 16" fill="none" xmlns="http://www.w3.org/2000/svg">
<path d="M0.868243 -0.496139C0.594233 -0.975656 -0.0166215 -1.14225 -0.496139 -0.868243C-0.975656 -0.594233 -1.14225 0.0166215 -0.868243 0.496139L0.868243 -0.496139ZM-0.868243 13.5039C-1.14225 13.9834 -0.975656 14.5942 -0.496139 14.8682C-0.0166215 15.1423 0.594233 14.9757 0.868243 14.4961L-0.868243 13.5039ZM3.71649 7.49614L2.84825 7L3.71649 7.49614ZM-0.868243 0.496139L2.84825 7L4.58473 6.00772L0.868243 -0.496139L-0.868243 0.496139ZM2.84825 7L-0.868243 13.5039L0.868243 14.4961L4.58474 7.99228L2.84825 7ZM2.84825 7H2.84825L4.58474 7.99228C4.93609 7.37741 4.93609 6.62259 4.58473 6.00772L2.84825 7Z" transform="translate(1 1)" fill="#FCFCFC"/>
</svg>
