<svg width="61" height="65" viewBox="0 0 61 65" fill="none" xmlns="http://www.w3.org/2000/svg">
<path d="M9.49294 15.6C9.49294 12.72 9.95694 10.552 10.8849 9.096C11.8289 7.64 13.1969 6.912 14.9889 6.912C16.9249 6.912 18.3249 7.632 19.1889 9.072C20.0689 10.496 20.5089 12.672 20.5089 15.6C20.5089 18.48 20.0369 20.648 19.0929 22.104C18.1649 23.56 16.7969 24.288 14.9889 24.288C13.0849 24.288 11.6929 23.528 10.8129 22.008C9.93294 20.488 9.49294 18.352 9.49294 15.6ZM11.4849 15.6C11.4849 16.64 11.5489 17.592 11.6769 18.456C11.8209 19.304 12.0369 20.04 12.3249 20.664C12.6129 21.272 12.9729 21.752 13.4049 22.104C13.8529 22.44 14.3809 22.608 14.9889 22.608C16.2049 22.608 17.0929 22.048 17.6529 20.928C18.2289 19.792 18.5169 18.016 18.5169 15.6C18.5169 14.576 18.4529 13.632 18.3249 12.768C18.2129 11.904 18.0129 11.16 17.7249 10.536C17.4529 9.912 17.0929 9.432 16.6449 9.096C16.1969 8.76 15.6449 8.592 14.9889 8.592C13.7889 8.592 12.9009 9.16 12.3249 10.296C11.7649 11.432 11.4849 13.2 11.4849 15.6Z" transform="translate(10 9)" fill="#012D48"/>
<path d="M14.4229 20.8682C15.7308 22.2915 17.9449 22.3851 19.3682 21.0771C20.7915 19.7692 20.8851 17.5551 19.5771 16.1318L14.4229 20.8682ZM-2.57715 2.36819L14.4229 20.8682L19.5771 16.1318L2.57715 -2.36819L-2.57715 2.36819Z" transform="translate(40 43)" fill="#3EC2CF"/>
<circle cx="25" cy="25" r="23.5" stroke="#3EC2CF" stroke-width="3"/>
</svg>
